<svg version="1.1" id="Layer_1" xmlns="http://www.w3.org/2000/svg" xmlns:xlink="http://www.w3.org/1999/xlink" x="0px" y="0px"
	 width="100%" viewBox="0 0 2560 1298" enable-background="new 0 0 2560 1298" xml:space="preserve">
<path fill="#E70020" opacity="1.000000" stroke="none" 
	d="
M2561.000000,216.000000 
	C2561.000000,505.029388 2561.000000,794.058777 2560.531250,1083.544067 
	C1973.502808,1084.000000 1386.943237,1084.000000 799.335510,1084.000000 
	C800.605835,1082.849243 801.010498,1082.408081 801.485229,1082.063354 
	C833.049072,1059.140869 859.477539,1030.971191 883.360352,1000.438110 
	C945.142151,921.452393 1006.537415,842.164368 1068.094482,763.002808 
	C1069.276489,761.482666 1070.550415,760.033997 1072.082397,758.189758 
	C1098.321411,791.632141 1124.242554,824.669312 1150.283447,857.859070 
	C1151.156494,856.803162 1151.603760,856.308044 1152.000732,855.775452 
	C1179.769287,818.519348 1207.494629,781.230835 1235.375488,744.058960 
	C1237.538208,741.175598 1236.675171,739.592834 1234.853027,737.262268 
	C1211.255737,707.079651 1187.783447,676.799072 1164.130371,646.660278 
	C1161.842773,643.745361 1161.900146,641.995117 1164.161743,639.092896 
	C1207.062012,584.040161 1249.843994,528.895264 1292.643555,473.764160 
	C1309.906372,451.527374 1327.310059,429.397614 1344.366455,407.003479 
	C1366.472290,377.979797 1365.806763,343.777863 1342.099487,317.463135 
	C1323.700684,297.040649 1300.754517,287.473541 1273.051147,293.089111 
	C1255.747681,296.596619 1242.857422,307.174042 1232.240356,320.863037 
	C1180.175171,387.992279 1128.080688,455.098816 1075.993652,522.211304 
	C1074.611816,523.991699 1073.199951,525.748779 1071.650513,527.708435 
	C1070.321411,526.084412 1069.351074,524.948303 1068.433838,523.770874 
	C1039.771606,486.976532 1011.114624,450.178131 982.456726,413.380371 
	C957.687439,381.575684 932.895813,349.788330 908.159729,317.957825 
	C898.188599,305.126831 886.054321,295.346375 870.132263,291.045166 
	C837.463745,282.220093 799.920837,301.494904 785.965881,334.440186 
	C774.902832,360.558197 780.515015,384.254333 797.431458,405.959747 
	C857.436951,482.952606 917.483765,559.913269 977.513184,636.887451 
	C979.114014,638.940186 980.695862,641.007629 982.311218,643.100098 
	C908.193237,738.315979 834.535706,833.176819 760.586487,927.809692 
	C735.098083,960.427246 707.530334,991.178406 675.235413,1017.378540 
	C620.831787,1061.515137 558.484985,1083.783691 488.575500,1083.909180 
	C328.744202,1084.196289 168.912018,1084.000000 9.080208,1084.000000 
	C7.129289,1084.000000 5.178370,1084.000000 3.102057,1084.000000 
	C3.102057,794.589966 3.102057,505.677673 3.102057,216.683777 
	C586.928711,216.683777 1170.508911,216.683777 1755.629883,216.683777 
	C1753.986450,217.697372 1753.541138,217.924667 1753.148071,218.221207 
	C1723.388794,240.667908 1698.091431,267.630341 1675.251099,296.842438 
	C1613.381470,375.971527 1551.892944,455.398560 1490.247803,534.703247 
	C1489.145996,536.120483 1487.978760,537.486816 1486.711670,539.036316 
	C1460.515381,505.692719 1434.597534,472.703583 1408.330933,439.270416 
	C1379.092407,478.552124 1350.119995,517.476196 1321.176025,556.362183 
	C1346.789062,589.255981 1372.049072,621.696289 1397.351318,654.190918 
	C1396.286255,655.643616 1395.436768,656.862915 1394.526489,658.035034 
	C1349.266724,716.318665 1303.998535,774.595703 1258.739380,832.879761 
	C1243.619019,852.351562 1228.292114,871.668396 1213.468384,891.363770 
	C1193.741333,917.573975 1192.945190,948.211975 1211.950195,973.817810 
	C1228.913208,996.672791 1251.725952,1008.401245 1280.728271,1004.946777 
	C1299.857300,1002.668274 1314.264648,991.926147 1325.811157,977.075745 
	C1377.956909,910.008667 1430.048584,842.899719 1482.165039,775.809998 
	C1483.756958,773.760559 1485.405884,771.755371 1487.218384,769.491882 
	C1500.089355,786.011902 1512.574707,802.039307 1525.062622,818.064575 
	C1567.349487,872.329956 1609.541504,926.669495 1651.966064,980.827026 
	C1672.465820,1006.996094 1702.080078,1014.965576 1731.732300,1002.901978 
	C1758.888672,991.853699 1777.821045,965.220581 1778.288086,937.496887 
	C1778.592041,919.447327 1771.503174,904.236694 1760.647217,890.331116 
	C1707.139038,821.791260 1653.689819,753.205322 1600.223022,684.633118 
	C1592.360718,674.549377 1584.516235,664.451721 1576.594604,654.271912 
	C1577.891602,652.535156 1578.954712,651.061218 1580.068970,649.627075 
	C1640.260132,572.146484 1700.439087,494.656616 1760.657349,417.197266 
	C1787.956909,382.081635 1814.769043,346.562988 1845.757935,314.497009 
	C1884.531616,274.375732 1928.680908,242.581375 1982.770874,226.364807 
	C1999.810791,221.256058 2017.031616,216.310165 2035.023438,216.301086 
	C2208.021729,216.213898 2381.020264,216.249817 2554.018555,216.238510 
	C2556.345703,216.238358 2558.672852,216.082932 2561.000000,216.000000 
M177.734024,906.762817 
	C242.756317,969.266602 320.096619,1003.676086 410.334198,1008.250488 
	C470.200836,1011.285278 527.302612,999.694275 581.138245,973.398376 
	C737.254089,897.144409 816.431763,722.865601 771.937744,554.154480 
	C726.645325,382.415924 562.019653,269.635864 386.204041,289.795868 
	C336.739868,295.467712 290.458252,310.706604 247.637894,336.000336 
	C119.913452,411.446320 51.369442,554.888977 73.299393,701.623230 
	C85.195610,781.221252 120.192131,849.427368 177.734024,906.762817 
M1926.523926,352.013580 
	C1805.166626,437.789154 1749.610962,586.176880 1782.465210,729.309570 
	C1817.897095,883.672119 1946.101318,994.683838 2103.265137,1007.661621 
	C2166.283936,1012.865479 2226.652344,1001.517395 2283.694092,974.032898 
	C2453.243896,892.338684 2529.983643,696.102844 2465.276855,521.387451 
	C2409.828857,371.672119 2258.304443,269.092102 2086.085449,290.210815 
	C2028.056641,297.326691 1975.082031,318.131744 1926.523926,352.013580 
z"/>
<path fill="#FFFFFF" opacity="1.000000" stroke="none" 
	d="
M2561.000000,215.531342 
	C2558.672852,216.082932 2556.345703,216.238358 2554.018555,216.238510 
	C2381.020264,216.249817 2208.021729,216.213898 2035.023438,216.301086 
	C2017.031616,216.310165 1999.810791,221.256058 1982.770874,226.364807 
	C1928.680908,242.581375 1884.531616,274.375732 1845.757935,314.497009 
	C1814.769043,346.562988 1787.956909,382.081635 1760.657349,417.197266 
	C1700.439087,494.656616 1640.260132,572.146484 1580.068970,649.627075 
	C1578.954712,651.061218 1577.891602,652.535156 1576.594604,654.271912 
	C1584.516235,664.451721 1592.360718,674.549377 1600.223022,684.633118 
	C1653.689819,753.205322 1707.139038,821.791260 1760.647217,890.331116 
	C1771.503174,904.236694 1778.592041,919.447327 1778.288086,937.496887 
	C1777.821045,965.220581 1758.888672,991.853699 1731.732300,1002.901978 
	C1702.080078,1014.965576 1672.465820,1006.996094 1651.966064,980.827026 
	C1609.541504,926.669495 1567.349487,872.329956 1525.062622,818.064575 
	C1512.574707,802.039307 1500.089355,786.011902 1487.218384,769.491882 
	C1485.405884,771.755371 1483.756958,773.760559 1482.165039,775.809998 
	C1430.048584,842.899719 1377.956909,910.008667 1325.811157,977.075745 
	C1314.264648,991.926147 1299.857300,1002.668274 1280.728271,1004.946777 
	C1251.725952,1008.401245 1228.913208,996.672791 1211.950195,973.817810 
	C1192.945190,948.211975 1193.741333,917.573975 1213.468384,891.363770 
	C1228.292114,871.668396 1243.619019,852.351562 1258.739380,832.879761 
	C1303.998535,774.595703 1349.266724,716.318665 1394.526489,658.035034 
	C1395.436768,656.862915 1396.286255,655.643616 1397.351318,654.190918 
	C1372.049072,621.696289 1346.789062,589.255981 1321.176025,556.362183 
	C1350.119995,517.476196 1379.092407,478.552124 1408.330933,439.270416 
	C1434.597534,472.703583 1460.515381,505.692719 1486.711670,539.036316 
	C1487.978760,537.486816 1489.145996,536.120483 1490.247803,534.703247 
	C1551.892944,455.398560 1613.381470,375.971527 1675.251099,296.842438 
	C1698.091431,267.630341 1723.388794,240.667908 1753.148071,218.221207 
	C1753.541138,217.924667 1753.986450,217.697372 1755.629883,216.683777 
	C1170.508911,216.683777 586.928711,216.683777 3.102057,216.683777 
	C3.102057,505.677673 3.102057,794.589966 3.102057,1084.000000 
	C5.178370,1084.000000 7.129289,1084.000000 9.080208,1084.000000 
	C168.912018,1084.000000 328.744202,1084.196289 488.575500,1083.909180 
	C558.484985,1083.783691 620.831787,1061.515137 675.235413,1017.378540 
	C707.530334,991.178406 735.098083,960.427246 760.586487,927.809692 
	C834.535706,833.176819 908.193237,738.315979 982.311218,643.100098 
	C980.695862,641.007629 979.114014,638.940186 977.513184,636.887451 
	C917.483765,559.913269 857.436951,482.952606 797.431458,405.959747 
	C780.515015,384.254333 774.902832,360.558197 785.965881,334.440186 
	C799.920837,301.494904 837.463745,282.220093 870.132263,291.045166 
	C886.054321,295.346375 898.188599,305.126831 908.159729,317.957825 
	C932.895813,349.788330 957.687439,381.575684 982.456726,413.380371 
	C1011.114624,450.178131 1039.771606,486.976532 1068.433838,523.770874 
	C1069.351074,524.948303 1070.321411,526.084412 1071.650513,527.708435 
	C1073.199951,525.748779 1074.611816,523.991699 1075.993652,522.211304 
	C1128.080688,455.098816 1180.175171,387.992279 1232.240356,320.863037 
	C1242.857422,307.174042 1255.747681,296.596619 1273.051147,293.089111 
	C1300.754517,287.473541 1323.700684,297.040649 1342.099487,317.463135 
	C1365.806763,343.777863 1366.472290,377.979797 1344.366455,407.003479 
	C1327.310059,429.397614 1309.906372,451.527374 1292.643555,473.764160 
	C1249.843994,528.895264 1207.062012,584.040161 1164.161743,639.092896 
	C1161.900146,641.995117 1161.842773,643.745361 1164.130371,646.660278 
	C1187.783447,676.799072 1211.255737,707.079651 1234.853027,737.262268 
	C1236.675171,739.592834 1237.538208,741.175598 1235.375488,744.058960 
	C1207.494629,781.230835 1179.769287,818.519348 1152.000732,855.775452 
	C1151.603760,856.308044 1151.156494,856.803162 1150.283447,857.859070 
	C1124.242554,824.669312 1098.321411,791.632141 1072.082397,758.189758 
	C1070.550415,760.033997 1069.276489,761.482666 1068.094482,763.002808 
	C1006.537415,842.164368 945.142151,921.452393 883.360352,1000.438110 
	C859.477539,1030.971191 833.049072,1059.140869 801.485229,1082.063354 
	C801.010498,1082.408081 800.605835,1082.849243 799.335510,1084.000000 
	C1386.943237,1084.000000 1973.502808,1084.000000 2560.531250,1084.000000 
	C2561.000000,1106.354248 2561.000000,1128.708496 2560.534668,1151.566162 
	C2557.571289,1152.105835 2555.072754,1152.173584 2552.574463,1152.173706 
	C1705.321777,1152.178223 858.069092,1152.178101 10.816373,1152.178101 
	C8.358689,1152.178101 5.901006,1152.178101 2.866160,1152.178101 
	C2.866160,1156.797119 2.866160,1160.911743 2.502781,1164.869873 
	C1.759597,1164.808838 1.379791,1164.904419 0.999992,1165.000000 
	C1.000000,821.645752 1.000000,478.291534 1.222925,134.801392 
	C1.922732,134.432190 2.399613,134.198898 2.929613,134.431427 
	C2.982732,139.161285 2.982732,143.425308 2.982732,148.034500 
	C6.001221,148.034500 8.474648,148.034500 10.948074,148.034500 
	C858.133423,148.034500 1705.318848,148.034531 2552.504150,148.033081 
	C2555.336182,148.033066 2558.167969,148.011505 2561.000000,148.000000 
	C2561.000000,170.354233 2561.000000,192.708450 2561.000000,215.531342 
z"/>
<path fill="#FBB110" opacity="1.000000" stroke="none" 
	d="
M2561.000000,147.531342 
	C2558.167969,148.011505 2555.336182,148.033066 2552.504150,148.033081 
	C1705.318848,148.034531 858.133423,148.034500 10.948074,148.034500 
	C8.474648,148.034500 6.001221,148.034500 2.982732,148.034500 
	C2.982732,143.425308 2.982732,139.161285 2.976697,133.981445 
	C3.614394,117.852966 7.266774,103.397026 12.839080,89.217125 
	C21.694611,66.682381 35.755207,47.861462 54.111950,32.645370 
	C72.788742,17.163986 94.371574,6.874074 118.624611,2.899547 
	C119.172134,2.809820 119.545433,1.656953 120.000000,1.000000 
	C894.354187,1.000000 1668.708374,1.000000 2443.187988,1.312823 
	C2443.967285,2.071672 2444.570557,2.794322 2445.281982,2.923987 
	C2479.223145,9.111732 2506.880127,25.782091 2528.890137,52.293842 
	C2544.684326,71.318230 2554.601074,92.916252 2559.075439,117.143692 
	C2559.207275,117.856590 2560.336182,118.385361 2561.000000,119.000015 
	C2561.000000,128.354233 2561.000000,137.708450 2561.000000,147.531342 
z"/>
<path fill="#FBB110" opacity="1.000000" stroke="none" 
	d="
M2.866160,1165.026367 
	C2.866160,1160.911743 2.866160,1156.797119 2.866160,1152.178101 
	C5.901006,1152.178101 8.358689,1152.178101 10.816373,1152.178101 
	C858.069092,1152.178101 1705.321777,1152.178223 2552.574463,1152.173706 
	C2555.072754,1152.173584 2557.571289,1152.105835 2560.534668,1152.034790 
	C2561.000000,1161.022705 2561.000000,1170.045288 2560.675537,1179.203613 
	C2559.487549,1182.738281 2558.666260,1186.148560 2557.754150,1189.534302 
	C2549.313965,1220.872681 2533.632568,1247.446045 2507.812500,1267.863647 
	C2487.968262,1283.555786 2465.907959,1293.496948 2440.906006,1297.079590 
	C2440.193604,1297.181641 2439.632080,1298.336304 2439.000000,1299.000000 
	C1667.977417,1299.000000 896.954712,1299.000000 125.797234,1298.667847 
	C122.907104,1297.560181 120.196625,1296.510010 117.389526,1296.052002 
	C90.380623,1291.645996 67.426315,1278.984375 47.503002,1260.815308 
	C33.409504,1247.962769 22.718216,1232.415894 14.942805,1214.889771 
	C7.882171,1198.974976 3.373693,1182.500000 2.866160,1165.026367 
z"/>
<path fill="#000000" opacity="1.000000" stroke="none" 
	d="
M2.502781,1164.869873 
	C3.373693,1182.500000 7.882171,1198.974976 14.942805,1214.889771 
	C22.718216,1232.415894 33.409504,1247.962769 47.503002,1260.815308 
	C67.426315,1278.984375 90.380623,1291.645996 117.389526,1296.052002 
	C120.196625,1296.510010 122.907104,1297.560181 125.331192,1298.667847 
	C83.736855,1299.000000 42.473709,1299.000000 1.000000,1299.000000 
	C1.000000,1254.645996 1.000000,1210.291626 0.999992,1165.468628 
	C1.379791,1164.904419 1.759597,1164.808838 2.502781,1164.869873 
z"/>
<path fill="#000000" opacity="1.000000" stroke="none" 
	d="
M119.531342,1.000000 
	C119.545433,1.656953 119.172134,2.809820 118.624611,2.899547 
	C94.371574,6.874074 72.788742,17.163986 54.111950,32.645370 
	C35.755207,47.861462 21.694611,66.682381 12.839080,89.217125 
	C7.266774,103.397026 3.614394,117.852966 2.923578,133.515625 
	C2.399613,134.198898 1.922732,134.432190 1.222925,134.332733 
	C1.000000,89.743759 1.000000,45.487511 1.000000,1.000000 
	C40.353928,1.000000 79.708305,1.000000 119.531342,1.000000 
z"/>
<path fill="#000000" opacity="1.000000" stroke="none" 
	d="
M2439.468750,1299.000000 
	C2439.632080,1298.336304 2440.193604,1297.181641 2440.906006,1297.079590 
	C2465.907959,1293.496948 2487.968262,1283.555786 2507.812500,1267.863647 
	C2533.632568,1247.446045 2549.313965,1220.872681 2557.754150,1189.534302 
	C2558.666260,1186.148560 2559.487549,1182.738281 2560.675537,1179.669678 
	C2561.000000,1219.594482 2561.000000,1259.189087 2561.000000,1299.000000 
	C2520.645996,1299.000000 2480.291748,1299.000000 2439.468750,1299.000000 
z"/>
<path fill="#000000" opacity="1.000000" stroke="none" 
	d="
M2561.000000,118.531357 
	C2560.336182,118.385361 2559.207275,117.856590 2559.075439,117.143692 
	C2554.601074,92.916252 2544.684326,71.318230 2528.890137,52.293842 
	C2506.880127,25.782091 2479.223145,9.111732 2445.281982,2.923987 
	C2444.570557,2.794322 2443.967285,2.071672 2443.656738,1.312823 
	C2482.927246,1.000000 2521.854492,1.000000 2561.000000,1.000000 
	C2561.000000,40.020622 2561.000000,79.041656 2561.000000,118.531357 
z"/>
<path fill="#FFFFFF" opacity="1.000000" stroke="none" 
	d="
M177.485245,906.514160 
	C120.192131,849.427368 85.195610,781.221252 73.299393,701.623230 
	C51.369442,554.888977 119.913452,411.446320 247.637894,336.000336 
	C290.458252,310.706604 336.739868,295.467712 386.204041,289.795868 
	C562.019653,269.635864 726.645325,382.415924 771.937744,554.154480 
	C816.431763,722.865601 737.254089,897.144409 581.138245,973.398376 
	C527.302612,999.694275 470.200836,1011.285278 410.334198,1008.250488 
	C320.096619,1003.676086 242.756317,969.266602 177.485245,906.514160 
M360.459991,442.891510 
	C334.348450,451.370667 310.818848,464.539429 289.893433,482.254791 
	C217.669968,543.398865 193.591370,641.954407 229.084183,730.700256 
	C266.131622,823.333313 366.353760,878.756775 464.236450,860.740967 
	C559.114929,843.278015 631.427917,764.568298 639.666626,668.560913 
	C645.310181,602.795288 626.207153,544.480164 579.572937,497.567719 
	C518.343445,435.972961 444.708069,418.384338 360.459991,442.891510 
z"/>
<path fill="#FFFFFF" opacity="1.000000" stroke="none" 
	d="
M1926.821289,351.811951 
	C1975.082031,318.131744 2028.056641,297.326691 2086.085449,290.210815 
	C2258.304443,269.092102 2409.828857,371.672119 2465.276855,521.387451 
	C2529.983643,696.102844 2453.243896,892.338684 2283.694092,974.032898 
	C2226.652344,1001.517395 2166.283936,1012.865479 2103.265137,1007.661621 
	C1946.101318,994.683838 1817.897095,883.672119 1782.465210,729.309570 
	C1749.610962,586.176880 1805.166626,437.789154 1926.821289,351.811951 
M2213.480225,448.970734 
	C2191.666748,439.830383 2169.014893,434.269409 2145.367188,432.818298 
	C2086.892090,429.230133 2035.076416,446.257538 1991.065308,484.733643 
	C1917.321411,549.203247 1896.166382,652.059570 1937.418945,740.903992 
	C1975.497925,822.913391 2064.307617,873.074585 2153.451416,862.824097 
	C2197.685547,857.737671 2236.615723,840.572144 2270.423584,811.522278 
	C2337.879639,753.559814 2362.949951,654.565002 2330.749268,571.706970 
	C2308.698730,514.966919 2269.829834,474.086517 2213.480225,448.970734 
z"/>
<path fill="#E70020" opacity="1.000000" stroke="none" 
	d="
M360.835907,442.763428 
	C444.708069,418.384338 518.343445,435.972961 579.572937,497.567719 
	C626.207153,544.480164 645.310181,602.795288 639.666626,668.560913 
	C631.427917,764.568298 559.114929,843.278015 464.236450,860.740967 
	C366.353760,878.756775 266.131622,823.333313 229.084183,730.700256 
	C193.591370,641.954407 217.669968,543.398865 289.893433,482.254791 
	C310.818848,464.539429 334.348450,451.370667 360.835907,442.763428 
z"/>
<path fill="#E70020" opacity="1.000000" stroke="none" 
	d="
M2213.839844,449.099670 
	C2269.829834,474.086517 2308.698730,514.966919 2330.749268,571.706970 
	C2362.949951,654.565002 2337.879639,753.559814 2270.423584,811.522278 
	C2236.615723,840.572144 2197.685547,857.737671 2153.451416,862.824097 
	C2064.307617,873.074585 1975.497925,822.913391 1937.418945,740.903992 
	C1896.166382,652.059570 1917.321411,549.203247 1991.065308,484.733643 
	C2035.076416,446.257538 2086.892090,429.230133 2145.367188,432.818298 
	C2169.014893,434.269409 2191.666748,439.830383 2213.839844,449.099670 
z"/>
</svg>